<svg width="30" height="30" viewBox="0 0 30 30" fill="none" xmlns="http://www.w3.org/2000/svg">
<path d="M15 27.5C21.9037 27.5 27.5 21.9037 27.5 15C27.5 8.09625 21.9037 2.5 15 2.5C8.09625 2.5 2.5 8.09625 2.5 15C2.5 21.9037 8.09625 27.5 15 27.5Z" stroke="#333333" stroke-linecap="round" stroke-linejoin="round"/>
<path d="M15 15.625C16.1603 15.625 17.2731 15.1641 18.0936 14.3436C18.9141 13.5231 19.375 12.4103 19.375 11.25C19.375 10.0897 18.9141 8.97688 18.0936 8.15641C17.2731 7.33594 16.1603 6.875 15 6.875C13.8397 6.875 12.7269 7.33594 11.9064 8.15641C11.0859 8.97688 10.625 10.0897 10.625 11.25C10.625 12.4103 11.0859 13.5231 11.9064 14.3436C12.7269 15.1641 13.8397 15.625 15 15.625Z" stroke="#333333" stroke-linejoin="round"/>
<path d="M6.26367 23.9575C6.47867 20.7006 9.18867 18.125 12.4999 18.125H17.4999C20.8068 18.125 23.5143 20.6938 23.7355 23.9444" stroke="#333333" stroke-linecap="round" stroke-linejoin="round"/>
</svg>
