<svg width="25" height="26" viewBox="0 0 25 26" fill="none" xmlns="http://www.w3.org/2000/svg">
<g clip-path="url(#clip0_2759_1196)">
<path d="M0.833008 1.33398L1.83301 4.66732M1.83301 4.66732L5.83301 18.0007H24.1663V8.00065C24.1663 7.1166 23.8152 6.26875 23.19 5.64363C22.5649 5.01851 21.7171 4.66732 20.833 4.66732H1.83301ZM20.833 24.6673C20.391 24.6673 19.9671 24.4917 19.6545 24.1792C19.3419 23.8666 19.1663 23.4427 19.1663 23.0007C19.1663 22.5586 19.3419 22.1347 19.6545 21.8221C19.9671 21.5096 20.391 21.334 20.833 21.334C21.275 21.334 21.699 21.5096 22.0115 21.8221C22.3241 22.1347 22.4997 22.5586 22.4997 23.0007C22.4997 23.4427 22.3241 23.8666 22.0115 24.1792C21.699 24.4917 21.275 24.6673 20.833 24.6673ZM7.49967 23.0007C7.49967 22.5586 7.67527 22.1347 7.98783 21.8221C8.30039 21.5096 8.72431 21.334 9.16634 21.334C9.60837 21.334 10.0323 21.5096 10.3449 21.8221C10.6574 22.1347 10.833 22.5586 10.833 23.0007C10.833 23.4427 10.6574 23.8666 10.3449 24.1792C10.0323 24.4917 9.60837 24.6673 9.16634 24.6673C8.72431 24.6673 8.30039 24.4917 7.98783 24.1792C7.67527 23.8666 7.49967 23.4427 7.49967 23.0007Z" stroke="#333333"/>
</g>
<defs>
<clipPath id="clip0_2759_1196">
<rect width="25" height="25" fill="white" transform="translate(0 0.5)"/>
</clipPath>
</defs>
</svg>
