<svg width="17" height="17" viewBox="0 0 17 17" fill="none" xmlns="http://www.w3.org/2000/svg">
<g clip-path="url(#clip0_322_35)">
<path d="M16.4336 16.4331L11.9002 11.8997M7.36689 14.1664C6.47391 14.1664 5.58966 13.9905 4.76465 13.6488C3.93963 13.3071 3.19001 12.8062 2.55857 12.1747C1.92713 11.5433 1.42625 10.7937 1.08451 9.96865C0.742782 9.14364 0.566895 8.25939 0.566895 7.36641C0.566895 6.47342 0.742782 5.58917 1.08451 4.76416C1.42625 3.93914 1.92713 3.18952 2.55857 2.55808C3.19001 1.92664 3.93963 1.42576 4.76465 1.08403C5.58966 0.742293 6.47391 0.566406 7.36689 0.566406C9.17037 0.566406 10.9 1.28283 12.1752 2.55808C13.4505 3.83333 14.1669 5.56293 14.1669 7.36641C14.1669 9.16988 13.4505 10.8995 12.1752 12.1747C10.9 13.45 9.17037 14.1664 7.36689 14.1664Z" stroke="black"/>
</g>
<defs>
<clipPath id="clip0_322_35">
<rect width="17" height="17" fill="white"/>
</clipPath>
</defs>
</svg>
