<svg width="15" height="15" viewBox="0 0 15 15" fill="none" xmlns="http://www.w3.org/2000/svg">
<path d="M5.625 1.875H2.5C2.33424 1.875 2.17527 1.94085 2.05806 2.05806C1.94085 2.17527 1.875 2.33424 1.875 2.5V5.625C1.875 5.79076 1.94085 5.94973 2.05806 6.06694C2.17527 6.18415 2.33424 6.25 2.5 6.25H5.625C5.79076 6.25 5.94973 6.18415 6.06694 6.06694C6.18415 5.94973 6.25 5.79076 6.25 5.625V2.5C6.25 2.33424 6.18415 2.17527 6.06694 2.05806C5.94973 1.94085 5.79076 1.875 5.625 1.875ZM5.625 8.75H2.5C2.33424 8.75 2.17527 8.81585 2.05806 8.93306C1.94085 9.05027 1.875 9.20924 1.875 9.375V12.5C1.875 12.6658 1.94085 12.8247 2.05806 12.9419C2.17527 13.0592 2.33424 13.125 2.5 13.125H5.625C5.79076 13.125 5.94973 13.0592 6.06694 12.9419C6.18415 12.8247 6.25 12.6658 6.25 12.5V9.375C6.25 9.20924 6.18415 9.05027 6.06694 8.93306C5.94973 8.81585 5.79076 8.75 5.625 8.75ZM12.5 1.875H9.375C9.20924 1.875 9.05027 1.94085 8.93306 2.05806C8.81585 2.17527 8.75 2.33424 8.75 2.5V5.625C8.75 5.79076 8.81585 5.94973 8.93306 6.06694C9.05027 6.18415 9.20924 6.25 9.375 6.25H12.5C12.6658 6.25 12.8247 6.18415 12.9419 6.06694C13.0592 5.94973 13.125 5.79076 13.125 5.625V2.5C13.125 2.33424 13.0592 2.17527 12.9419 2.05806C12.8247 1.94085 12.6658 1.875 12.5 1.875ZM12.5 8.75H9.375C9.20924 8.75 9.05027 8.81585 8.93306 8.93306C8.81585 9.05027 8.75 9.20924 8.75 9.375V12.5C8.75 12.6658 8.81585 12.8247 8.93306 12.9419C9.05027 13.0592 9.20924 13.125 9.375 13.125H12.5C12.6658 13.125 12.8247 13.0592 12.9419 12.9419C13.0592 12.8247 13.125 12.6658 13.125 12.5V9.375C13.125 9.20924 13.0592 9.05027 12.9419 8.93306C12.8247 8.81585 12.6658 8.75 12.5 8.75Z" stroke="#333333" stroke-width="0.5" stroke-linejoin="round"/>
</svg>
