<svg width="18" height="18" viewBox="0 0 18 18" fill="none" xmlns="http://www.w3.org/2000/svg">
<path fill-rule="evenodd" clip-rule="evenodd" d="M5.93784 1.60729C6.90861 1.20517 7.94925 0.998791 9.00001 1.00001C10.0508 0.998791 11.0914 1.20517 12.0622 1.60729C13.0329 2.00939 13.9146 2.5993 14.6567 3.34313C15.4006 4.08526 15.9906 4.96704 16.3927 5.93784C16.7948 6.90861 17.0012 7.94925 17 9.00001L17 8.99939L16.5 9.00001L17 9.00062L17 9.00001C17.0012 10.0508 16.7948 11.0914 16.3927 12.0622C15.9906 13.0329 15.4007 13.9147 14.6568 14.6568C13.9147 15.4007 13.0329 15.9906 12.0622 16.3927C11.0914 16.7948 10.0508 17.0012 9.00001 17L9.00062 17L9.00001 16.5L8.99939 17L9.00001 17C7.94925 17.0012 6.90861 16.7948 5.93784 16.3927C4.96708 15.9906 4.08532 15.4007 3.3432 14.6568C2.59934 13.9147 2.0094 13.0329 1.60729 12.0622C1.20517 11.0914 0.998791 10.0508 1.00001 9.00001C0.998791 7.94925 1.20517 6.90861 1.60729 5.93784C2.0094 4.96708 2.59934 4.08532 3.3432 3.3432C4.08532 2.59934 4.96708 2.0094 5.93784 1.60729ZM1.00001 9.00001L1.00001 9.00062L1.50001 9.00001L1.00001 8.99939L1.00001 9.00001ZM9.00001 1.00001L9.00062 1.00001L9.00001 1.50001L8.99939 1.00001L9.00001 1.00001ZM8.99939 2.00001C8.08017 1.99887 7.16978 2.17938 6.32054 2.53116C5.47129 2.88294 4.69992 3.39906 4.05075 4.04986L4.04986 4.05075C3.39906 4.69992 2.88294 5.47129 2.53116 6.32054C2.17938 7.16978 1.99887 8.08017 2.00001 8.99939V9.00062C1.99887 9.91984 2.17938 10.8302 2.53116 11.6795C2.88294 12.5287 3.39906 13.3001 4.04986 13.9493L4.05075 13.9501C4.69992 14.601 5.47129 15.1171 6.32054 15.4689C7.16978 15.8206 8.08017 16.0011 8.99939 16H9.00062C9.91984 16.0011 10.8302 15.8206 11.6795 15.4689C12.5287 15.1171 13.3001 14.601 13.9493 13.9501L13.9501 13.9493C14.601 13.3001 15.1171 12.5287 15.4689 11.6795C15.8206 10.8302 16.0011 9.91984 16 9.00062V8.99939C16.0011 8.08017 15.8206 7.16978 15.4689 6.32054C15.1171 5.47129 14.601 4.69992 13.9501 4.05075L13.9493 4.04986C13.3001 3.39906 12.5287 2.88294 11.6795 2.53116C10.8302 2.17938 9.91984 1.99887 9.00062 2.00001H8.99939ZM9 13.875C9.24864 13.875 9.4871 13.7762 9.66291 13.6004C9.83873 13.4246 9.9375 13.1861 9.9375 12.9375C9.9375 12.6889 9.83873 12.4504 9.66291 12.2746C9.4871 12.0988 9.24864 12 9 12C8.75136 12 8.5129 12.0988 8.33709 12.2746C8.16127 12.4504 8.0625 12.6889 8.0625 12.9375C8.0625 13.1861 8.16127 13.4246 8.33709 13.6004C8.5129 13.7762 8.75136 13.875 9 13.875ZM9.5 4.5C9.5 4.22386 9.27614 4 9 4C8.72386 4 8.5 4.22386 8.5 4.5V10.5C8.5 10.7761 8.72386 11 9 11C9.27614 11 9.5 10.7761 9.5 10.5V4.5Z" fill="#8D8D8D"/>
</svg>
