<svg width="36" height="36" viewBox="0 0 36 36" fill="none" xmlns="http://www.w3.org/2000/svg">
<path d="M1.2002 1.19922L2.6402 5.99922M2.6402 5.99922L8.4002 25.1992H34.8002V10.7992C34.8002 9.52618 34.2945 8.30528 33.3943 7.40511C32.4941 6.50493 31.2732 5.99922 30.0002 5.99922H2.6402ZM30.0002 34.7992C29.3637 34.7992 28.7532 34.5464 28.3031 34.0963C27.8531 33.6462 27.6002 33.0357 27.6002 32.3992C27.6002 31.7627 27.8531 31.1523 28.3031 30.7022C28.7532 30.2521 29.3637 29.9992 30.0002 29.9992C30.6367 29.9992 31.2472 30.2521 31.6973 30.7022C32.1473 31.1523 32.4002 31.7627 32.4002 32.3992C32.4002 33.0357 32.1473 33.6462 31.6973 34.0963C31.2472 34.5464 30.6367 34.7992 30.0002 34.7992ZM10.8002 32.3992C10.8002 31.7627 11.0531 31.1523 11.5031 30.7022C11.9532 30.2521 12.5637 29.9992 13.2002 29.9992C13.8367 29.9992 14.4472 30.2521 14.8973 30.7022C15.3473 31.1523 15.6002 31.7627 15.6002 32.3992C15.6002 33.0357 15.3473 33.6462 14.8973 34.0963C14.4472 34.5464 13.8367 34.7992 13.2002 34.7992C12.5637 34.7992 11.9532 34.5464 11.5031 34.0963C11.0531 33.6462 10.8002 33.0357 10.8002 32.3992Z" stroke="#333333"/>
</svg>
