<svg width="15" height="15" viewBox="0 0 15 15" fill="none" xmlns="http://www.w3.org/2000/svg">
<path fill-rule="evenodd" clip-rule="evenodd" d="M4.75 1.875C4.75 1.73693 4.86193 1.625 5 1.625H10C10.1381 1.625 10.25 1.73693 10.25 1.875V4.4375H13.125C13.1945 4.4375 13.2609 4.46644 13.3082 4.51738C13.3555 4.56831 13.3795 4.63665 13.3743 4.70597L12.7493 13.1435C12.7396 13.274 12.6309 13.375 12.5 13.375H2.5C2.36909 13.375 2.26035 13.274 2.25068 13.1435L1.62568 4.70597C1.62055 4.63665 1.64451 4.56831 1.69181 4.51738C1.73911 4.46644 1.80549 4.4375 1.875 4.4375H4.75V1.875ZM9.75 5.9375V4.9375H5.25V5.9375C5.25 6.07557 5.13807 6.1875 5 6.1875C4.86193 6.1875 4.75 6.07557 4.75 5.9375V4.9375H2.1442L2.73217 12.875H12.2678L12.8558 4.9375H10.25V5.9375C10.25 6.07557 10.1381 6.1875 10 6.1875C9.86193 6.1875 9.75 6.07557 9.75 5.9375ZM9.75 2.125V4.4375H5.25V2.125H9.75ZM5 10.375C4.86193 10.375 4.75 10.4869 4.75 10.625C4.75 10.7631 4.86193 10.875 5 10.875H10C10.1381 10.875 10.25 10.7631 10.25 10.625C10.25 10.4869 10.1381 10.375 10 10.375H5Z" fill="#333333"/>
</svg>
