<svg width="15" height="14" viewBox="0 0 15 14" fill="none" xmlns="http://www.w3.org/2000/svg">
<g clip-path="url(#clip0_2367_2430)">
<path d="M0.966797 0.466797L1.5268 2.33346M1.5268 2.33346L3.7668 9.80013H14.0335V4.20013C14.0335 3.70506 13.8368 3.23027 13.4867 2.8802C13.1367 2.53013 12.6619 2.33346 12.1668 2.33346H1.5268ZM12.1668 13.5335C11.9193 13.5335 11.6819 13.4351 11.5068 13.2601C11.3318 13.0851 11.2335 12.8477 11.2335 12.6001C11.2335 12.3526 11.3318 12.1152 11.5068 11.9402C11.6819 11.7651 11.9193 11.6668 12.1668 11.6668C12.4143 11.6668 12.6517 11.7651 12.8268 11.9402C13.0018 12.1152 13.1001 12.3526 13.1001 12.6001C13.1001 12.8477 13.0018 13.0851 12.8268 13.2601C12.6517 13.4351 12.4143 13.5335 12.1668 13.5335ZM4.70013 12.6001C4.70013 12.3526 4.79846 12.1152 4.9735 11.9402C5.14853 11.7651 5.38593 11.6668 5.63346 11.6668C5.881 11.6668 6.1184 11.7651 6.29343 11.9402C6.46846 12.1152 6.5668 12.3526 6.5668 12.6001C6.5668 12.8477 6.46846 13.0851 6.29343 13.2601C6.1184 13.4351 5.881 13.5335 5.63346 13.5335C5.38593 13.5335 5.14853 13.4351 4.9735 13.2601C4.79846 13.0851 4.70013 12.8477 4.70013 12.6001Z" stroke="#03A63C"/>
</g>
<defs>
<clipPath id="clip0_2367_2430">
<rect width="14" height="14" fill="white" transform="translate(0.5)"/>
</clipPath>
</defs>
</svg>
