<svg width="15" height="15" viewBox="0 0 15 15" fill="none" xmlns="http://www.w3.org/2000/svg">
<path fill-rule="evenodd" clip-rule="evenodd" d="M1 1.875C1 1.73693 1.11193 1.625 1.25 1.625H11.25C11.3881 1.625 11.5 1.73693 11.5 1.875V6.625H13.75C13.8881 6.625 14 6.73693 14 6.875V11.875C14 12.0131 13.8881 12.125 13.75 12.125H12.2911L11.4268 12.9893C11.3291 13.0869 11.1709 13.0869 11.0732 12.9893L10.2089 12.125H6.875C6.73693 12.125 6.625 12.0131 6.625 11.875V9.625H5.41605L4.23928 10.8018C4.14165 10.8994 3.98335 10.8994 3.88572 10.8018L2.70895 9.625H1.25C1.11193 9.625 1 9.51307 1 9.375V1.875ZM11.5 9.375V7.125H13.5V11.625H12.1875C12.1212 11.625 12.0576 11.6513 12.0107 11.6982L11.25 12.4589L10.4893 11.6982C10.4424 11.6513 10.3788 11.625 10.3125 11.625H7.125V9.625H11.25C11.3881 9.625 11.5 9.51307 11.5 9.375ZM11 2.125V6.875V9.125H6.875H5.3125C5.2462 9.125 5.18261 9.15134 5.13572 9.19822L4.0625 10.2714L2.98928 9.19822C2.94239 9.15134 2.8788 9.125 2.8125 9.125H1.5V2.125H11ZM3.75 5.375C3.61193 5.375 3.5 5.48693 3.5 5.625C3.5 5.76307 3.61193 5.875 3.75 5.875H4.0625C4.20057 5.875 4.3125 5.76307 4.3125 5.625C4.3125 5.48693 4.20057 5.375 4.0625 5.375H3.75ZM5.9375 5.375C5.79943 5.375 5.6875 5.48693 5.6875 5.625C5.6875 5.76307 5.79943 5.875 5.9375 5.875H6.25C6.38807 5.875 6.5 5.76307 6.5 5.625C6.5 5.48693 6.38807 5.375 6.25 5.375H5.9375ZM8.125 5.375C7.98693 5.375 7.875 5.48693 7.875 5.625C7.875 5.76307 7.98693 5.875 8.125 5.875H8.4375C8.57557 5.875 8.6875 5.76307 8.6875 5.625C8.6875 5.48693 8.57557 5.375 8.4375 5.375H8.125Z" fill="#333333"/>
</svg>
