<svg width="15" height="15" viewBox="0 0 15 15" fill="none" xmlns="http://www.w3.org/2000/svg">
<path fill-rule="evenodd" clip-rule="evenodd" d="M2.125 2.8125C2.125 2.4328 2.4328 2.125 2.8125 2.125H12.1875C12.5672 2.125 12.875 2.4328 12.875 2.8125V12.1875C12.875 12.5672 12.5672 12.875 12.1875 12.875H2.8125C2.4328 12.875 2.125 12.5672 2.125 12.1875V2.8125ZM2.8125 1.625C2.15666 1.625 1.625 2.15666 1.625 2.8125V12.1875C1.625 12.8433 2.15666 13.375 2.8125 13.375H12.1875C12.8433 13.375 13.375 12.8433 13.375 12.1875V2.8125C13.375 2.15666 12.8433 1.625 12.1875 1.625H2.8125ZM4.375 4.4375C4.23693 4.4375 4.125 4.54943 4.125 4.6875C4.125 4.82557 4.23693 4.9375 4.375 4.9375H10.625C10.7631 4.9375 10.875 4.82557 10.875 4.6875C10.875 4.54943 10.7631 4.4375 10.625 4.4375H4.375ZM4.375 7.25C4.23693 7.25 4.125 7.36193 4.125 7.5C4.125 7.63807 4.23693 7.75 4.375 7.75H10.625C10.7631 7.75 10.875 7.63807 10.875 7.5C10.875 7.36193 10.7631 7.25 10.625 7.25H4.375ZM4.375 10.0625C4.23693 10.0625 4.125 10.1744 4.125 10.3125C4.125 10.4506 4.23693 10.5625 4.375 10.5625H10.625C10.7631 10.5625 10.875 10.4506 10.875 10.3125C10.875 10.1744 10.7631 10.0625 10.625 10.0625H4.375Z" fill="#333333"/>
</svg>
