<svg width="30" height="30" viewBox="0 0 30 30" fill="none" xmlns="http://www.w3.org/2000/svg">
<path fill-rule="evenodd" clip-rule="evenodd" d="M15 9.375C16.0355 9.375 16.875 8.53553 16.875 7.5C16.875 6.46447 16.0355 5.625 15 5.625C13.9645 5.625 13.125 6.46447 13.125 7.5C13.125 8.53553 13.9645 9.375 15 9.375ZM15 16.875C16.0355 16.875 16.875 16.0355 16.875 15C16.875 13.9645 16.0355 13.125 15 13.125C13.9645 13.125 13.125 13.9645 13.125 15C13.125 16.0355 13.9645 16.875 15 16.875ZM16.875 21.875C16.875 22.9105 16.0355 23.75 15 23.75C13.9645 23.75 13.125 22.9105 13.125 21.875C13.125 20.8395 13.9645 20 15 20C16.0355 20 16.875 20.8395 16.875 21.875Z" fill="#8D8D8D"/>
</svg>
