<svg width="15" height="15" viewBox="0 0 15 15" fill="none" xmlns="http://www.w3.org/2000/svg">
<g clip-path="url(#clip0_2250_4453)">
<path fill-rule="evenodd" clip-rule="evenodd" d="M7.64515 0.960092C7.55365 0.914344 7.44596 0.914344 7.35446 0.960092L1.10446 4.08509C0.994355 4.14014 0.924805 4.25268 0.924805 4.37578V10.6258C0.924805 10.7489 0.994355 10.8614 1.10446 10.9165L7.35446 14.0415C7.44596 14.0872 7.55365 14.0872 7.64515 14.0415L13.8951 10.9165C14.0053 10.8614 14.0748 10.7489 14.0748 10.6258V4.37578C14.0748 4.25268 14.0053 4.14014 13.8951 4.08509L7.64515 0.960092ZM1.5748 4.87369V10.4249L7.1998 13.2374V7.68619L4.24335 6.20797L4.23752 6.20505L1.5748 4.87369ZM7.79981 13.2374L13.4248 10.4249V4.87369L7.79981 7.68619V13.2374ZM13.051 4.38976L10.5969 3.16267L5.04563 5.93828L7.4998 7.16537L13.051 4.38976ZM9.92603 2.82726L7.4998 1.61414L1.94858 4.38976L4.3748 5.60287L9.92603 2.82726Z" fill="#333333"/>
</g>
<defs>
<clipPath id="clip0_2250_4453">
<rect width="15" height="15" fill="white"/>
</clipPath>
</defs>
</svg>
