<svg width="15" height="15" viewBox="0 0 15 15" fill="none" xmlns="http://www.w3.org/2000/svg">
<path fill-rule="evenodd" clip-rule="evenodd" d="M1 7.5C1 3.91005 3.91005 1 7.5 1C11.0899 1 14 3.91005 14 7.5C14 9.31359 13.2573 10.9537 12.0595 12.1327C12.0487 12.1455 12.0367 12.1573 12.0236 12.1677C10.8535 13.3019 9.25831 14 7.5 14C5.7545 14 4.16973 13.312 3.00205 12.1925C2.96954 12.1727 2.94202 12.1457 2.92156 12.114C1.73485 10.9363 1 9.30401 1 7.5ZM3.39198 11.8732C4.46549 12.882 5.91055 13.5 7.5 13.5C9.0895 13.5 10.5346 12.882 11.6081 11.8731C11.4516 10.4334 10.2315 9.3125 8.74999 9.3125H6.24999C4.76853 9.3125 3.54851 10.4334 3.39198 11.8732ZM12.0385 11.4248C11.6927 9.92818 10.3516 8.8125 8.74999 8.8125H6.24999C4.64838 8.8125 3.30742 9.92824 2.9616 11.4249C2.05094 10.3728 1.5 9.00075 1.5 7.5C1.5 4.1862 4.1862 1.5 7.5 1.5C10.8138 1.5 13.5 4.1862 13.5 7.5C13.5 9.0007 12.9491 10.3727 12.0385 11.4248ZM5.77643 3.90143C6.23355 3.44431 6.85353 3.1875 7.5 3.1875C8.14647 3.1875 8.76645 3.44431 9.22357 3.90143C9.68069 4.35855 9.9375 4.97853 9.9375 5.625C9.9375 6.27147 9.68069 6.89145 9.22357 7.34857C8.76645 7.80569 8.14647 8.0625 7.5 8.0625C6.85353 8.0625 6.23355 7.80569 5.77643 7.34857C5.31931 6.89145 5.0625 6.27147 5.0625 5.625C5.0625 4.97853 5.31931 4.35855 5.77643 3.90143ZM7.5 3.6875C6.98614 3.6875 6.49333 3.89163 6.12998 4.25498C5.76663 4.61833 5.5625 5.11114 5.5625 5.625C5.5625 6.13886 5.76663 6.63167 6.12998 6.99502C6.49333 7.35837 6.98614 7.5625 7.5 7.5625C8.01386 7.5625 8.50667 7.35837 8.87002 6.99502C9.23337 6.63167 9.4375 6.13886 9.4375 5.625C9.4375 5.11114 9.23337 4.61833 8.87002 4.25498C8.50667 3.89163 8.01386 3.6875 7.5 3.6875Z" fill="#333333"/>
</svg>
