<svg width="80" height="80" viewBox="0 0 80 80" fill="none" xmlns="http://www.w3.org/2000/svg">
<circle cx="40" cy="40" r="40" fill="#E6F6E8"/>
<path fill-rule="evenodd" clip-rule="evenodd" d="M46.7938 36.2044C44.9919 38.0062 42.5481 39.0184 40 39.0184C37.4518 39.0184 35.008 38.0062 33.2062 36.2044C31.4044 34.4025 30.3921 31.9587 30.3921 29.4106C30.3921 26.8624 31.4044 24.4186 33.2062 22.6168C35.008 20.815 37.4518 19.8027 40 19.8027C42.5481 19.8027 44.9919 20.815 46.7938 22.6168C48.5956 24.4186 49.6078 26.8624 49.6078 29.4106C49.6078 31.9587 48.5956 34.4025 46.7938 36.2044ZM34.5097 44.5086C27.238 44.5086 21.2866 50.1649 20.8145 57.3172L59.1841 57.2884C58.6982 50.1498 52.7523 44.5086 45.4901 44.5086H34.5097Z" fill="#E6E6E6"/>
</svg>
