<svg width="20" height="20" viewBox="0 0 20 20" fill="none" xmlns="http://www.w3.org/2000/svg">
<path fill-rule="evenodd" clip-rule="evenodd" d="M1.87652 2.04602C1.7217 1.97457 1.54114 1.98694 1.39752 2.07883C1.25389 2.17073 1.16699 2.32949 1.16699 2.5V15C1.16699 15.195 1.28039 15.3723 1.45746 15.454L4.16559 16.7039C4.16566 16.7039 4.16573 16.7039 4.1658 16.704L6.87413 17.954C7.00272 18.0133 7.15045 18.0154 7.28062 17.9596L12.9095 15.5472L15.4158 16.704L18.1241 17.954C18.279 18.0254 18.4595 18.0131 18.6031 17.9212C18.7468 17.8293 18.8337 17.6705 18.8337 17.5V5C18.8337 4.80498 18.7203 4.62775 18.5432 4.54602L15.8349 3.29602L13.1265 2.04602C13.1104 2.0386 13.0941 2.03208 13.0775 2.02645C12.9613 1.98707 12.8339 1.99161 12.72 2.04043L7.09119 4.45279L4.58485 3.29602C4.58479 3.29599 4.58472 3.29596 4.58465 3.29593L1.87652 2.04602ZM4.1658 4.20398L2.16699 3.28146V14.6801L4.58442 15.7958C4.58456 15.7959 4.58471 15.796 4.58485 15.796L6.58366 16.7185V5.31992L4.1658 4.20398ZM7.58366 5.3297V16.7417L12.417 14.6703V3.25827L7.58366 5.3297ZM13.417 3.28146V14.6801L15.8349 15.796L17.8337 16.7185V5.31992L15.4161 4.20414C15.416 4.20409 15.4159 4.20403 15.4158 4.20398L13.417 3.28146Z" fill="#F27830"/>
</svg>
