<svg width="28" height="32" viewBox="0 0 28 32" fill="none" xmlns="http://www.w3.org/2000/svg">
<path fill-rule="evenodd" clip-rule="evenodd" d="M13.3753 0.219131C13.7405 -0.0730437 14.2595 -0.0730437 14.6247 0.219131L27.1247 10.2191C27.3619 10.4089 27.5 10.6962 27.5 11V31C27.5 31.5523 27.0523 32 26.5 32H18.1667H9.83333H1.5C0.947715 32 0.5 31.5523 0.5 31V11C0.5 10.6962 0.63809 10.4089 0.875305 10.2191L13.3753 0.219131ZM2.5 30H8.83333V20.1667C8.83333 19.6144 9.28105 19.1667 9.83333 19.1667H18.1667C18.719 19.1667 19.1667 19.6144 19.1667 20.1667V30H25.5V11.4806L14 2.28062L2.5 11.4806V30ZM17.1667 30V21.1667H10.8333V30H17.1667Z" fill="#333333"/>
</svg>
