<svg width="28" height="36" viewBox="0 0 28 36" fill="none" xmlns="http://www.w3.org/2000/svg">
<path fill-rule="evenodd" clip-rule="evenodd" d="M14 0.332031C6.54438 0.332031 0.5 6.37641 0.5 13.832C0.5 19.6031 3.80962 25.0392 6.97324 28.941C8.57041 30.9108 10.1652 32.5319 11.3603 33.6606C11.9584 34.2255 12.4581 34.6686 12.81 34.972C12.986 35.1237 13.1252 35.2406 13.2215 35.3203C13.2696 35.3602 13.307 35.3908 13.3329 35.4119L13.363 35.4363L13.3714 35.4431L13.3739 35.4451L13.3748 35.4458C13.3751 35.446 13.3753 35.4462 14 34.6654L13.3753 35.4462C13.7405 35.7384 14.2595 35.7384 14.6247 35.4462L14 34.6654C14.6247 35.4462 14.6249 35.446 14.6252 35.4458L14.6261 35.4451L14.6286 35.4431L14.637 35.4363L14.6671 35.4119C14.693 35.3908 14.7304 35.3602 14.7785 35.3203C14.8748 35.2406 15.014 35.1237 15.19 34.972C15.5419 34.6686 16.0416 34.2255 16.6397 33.6606C17.8348 32.5319 19.4296 30.9108 21.0268 28.941C24.1904 25.0392 27.5 19.6031 27.5 13.832C27.5 6.37641 21.4556 0.332031 14 0.332031ZM15.2665 32.2066C14.7565 32.6883 14.323 33.0759 14 33.3568C13.677 33.0759 13.2435 32.6883 12.7335 32.2066C11.5848 31.1217 10.0546 29.5657 8.52676 27.6814C5.44038 23.8749 2.5 18.8943 2.5 13.832C2.5 7.48098 7.64895 2.33203 14 2.33203C20.351 2.33203 25.5 7.48098 25.5 13.832C25.5 18.8943 22.5596 23.8749 19.4732 27.6814C17.9454 29.5657 16.4152 31.1217 15.2665 32.2066ZM14 7.83203C12.4087 7.83203 10.8826 8.46417 9.75736 9.58939C8.63214 10.7146 8 12.2407 8 13.832C8 15.4233 8.63214 16.9495 9.75736 18.0747C10.8826 19.1999 12.4087 19.832 14 19.832C14.7879 19.832 15.5681 19.6768 16.2961 19.3753C17.0241 19.0738 17.6855 18.6318 18.2426 18.0747C18.7998 17.5175 19.2417 16.8561 19.5433 16.1281C19.8448 15.4002 20 14.62 20 13.832C20 13.0441 19.8448 12.2639 19.5433 11.5359C19.2417 10.808 18.7998 10.1465 18.2426 9.58939C17.6855 9.03224 17.0241 8.59028 16.2961 8.28875C15.5681 7.98723 14.7879 7.83203 14 7.83203ZM11.1716 11.0036C11.9217 10.2535 12.9391 9.83203 14 9.83203C14.5253 9.83203 15.0454 9.93549 15.5307 10.1365C16.016 10.3375 16.457 10.6322 16.8284 11.0036C17.1999 11.375 17.4945 11.816 17.6955 12.3013C17.8965 12.7866 18 13.3067 18 13.832C18 14.3573 17.8965 14.8775 17.6955 15.3628C17.4945 15.8481 17.1999 16.289 16.8284 16.6605C16.457 17.0319 16.016 17.3265 15.5307 17.5276C15.0454 17.7286 14.5253 17.832 14 17.832C12.9391 17.832 11.9217 17.4106 11.1716 16.6605C10.4214 15.9103 10 14.8929 10 13.832C10 12.7712 10.4214 11.7537 11.1716 11.0036Z" fill="#03A63C"/>
</svg>
