<svg width="24" height="24" viewBox="0 0 24 24" fill="none" xmlns="http://www.w3.org/2000/svg">
<path d="M23.1998 23.2008L16.7998 16.8008M10.3998 20.0008C9.13911 20.0008 7.89077 19.7525 6.72604 19.27C5.56132 18.7876 4.50302 18.0804 3.61158 17.189C2.72014 16.2976 2.01301 15.2393 1.53056 14.0745C1.04812 12.9098 0.799805 11.6615 0.799805 10.4008C0.799805 9.14009 1.04812 7.89175 1.53056 6.72702C2.01301 5.56229 2.72014 4.504 3.61158 3.61256C4.50302 2.72111 5.56132 2.01398 6.72604 1.53154C7.89077 1.04909 9.13911 0.800781 10.3998 0.800781C12.9459 0.800781 15.3877 1.81221 17.188 3.61256C18.9884 5.41291 19.9998 7.8547 19.9998 10.4008C19.9998 12.9469 18.9884 15.3887 17.188 17.189C15.3877 18.9894 12.9459 20.0008 10.3998 20.0008Z" stroke="#333333"/>
</svg>
