<svg width="22" height="22" viewBox="0 0 22 22" fill="none" xmlns="http://www.w3.org/2000/svg">
<path fill-rule="evenodd" clip-rule="evenodd" d="M7.29956 2.06703C8.47257 1.58114 9.73002 1.33177 10.9997 1.33326C12.2693 1.33177 13.5268 1.58114 14.6998 2.06703C15.8728 2.55292 16.9383 3.26577 17.835 4.16462C18.7338 5.06134 19.4467 6.12679 19.9326 7.2998C20.4185 8.47281 20.6678 9.73026 20.6663 10.9999C20.6678 12.2696 20.4185 13.527 19.9326 14.7C19.4467 15.8731 18.7338 16.9385 17.835 17.8352C16.9383 18.7341 15.8728 19.4469 14.6998 19.9328C13.5268 20.4187 12.2693 20.6681 10.9997 20.6666C9.73002 20.6681 8.47257 20.4187 7.29956 19.9328C6.12659 19.4469 5.06117 18.7341 4.16448 17.8353C3.26558 16.9386 2.5527 15.8731 2.06679 14.7C1.58089 13.527 1.33153 12.2696 1.33301 10.9999C1.33153 9.73027 1.58089 8.47282 2.06679 7.2998C2.55268 6.12679 3.26553 5.06134 4.16438 4.16462C5.06109 3.26577 6.12655 2.55292 7.29956 2.06703ZM1.33301 10.9999C1.33301 10.9997 1.33301 10.9995 1.33302 10.9993L1.83301 10.9999L1.33302 11.0005C1.33301 11.0003 1.33301 11.0001 1.33301 10.9999ZM10.9997 20.6666C10.9995 20.6666 10.9993 20.6666 10.9991 20.6666L10.9997 20.1666L11.0003 20.6666C11.0001 20.6666 10.9999 20.6666 10.9997 20.6666ZM20.6663 10.9999C20.6663 11.0001 20.6663 11.0003 20.6663 11.0005L20.1663 10.9999L20.6663 10.9993C20.6663 10.9995 20.6663 10.9997 20.6663 10.9999ZM10.9997 1.33326C10.9999 1.33326 11.0001 1.33326 11.0003 1.33326L10.9997 1.83326L10.9991 1.33326C10.9993 1.33326 10.9995 1.33326 10.9997 1.33326ZM10.9991 2.33326C9.86094 2.33186 8.73374 2.55535 7.68225 2.99091C6.63076 3.42646 5.6757 4.06549 4.87193 4.87128L4.87104 4.87217C4.06525 5.67594 3.42622 6.63101 2.99066 7.6825C2.55511 8.73399 2.33161 9.86118 2.33301 10.9993V11.0005C2.33161 12.1387 2.55511 13.2659 2.99066 14.3174C3.42622 15.3688 4.06525 16.3239 4.87104 17.1277L4.87193 17.1286C5.6757 17.9344 6.63076 18.5734 7.68225 19.0089C8.73374 19.4445 9.86094 19.668 10.9991 19.6666H11.0003C12.1384 19.668 13.2656 19.4445 14.3171 19.0089C15.3686 18.5734 16.3237 17.9344 17.1274 17.1286L17.1283 17.1277C17.9341 16.3239 18.5731 15.3688 19.0087 14.3174C19.4443 13.2659 19.6678 12.1387 19.6663 11.0005V10.9993C19.6678 9.86118 19.4443 8.73399 19.0087 7.6825C18.5731 6.63101 17.9341 5.67594 17.1283 4.87217L17.1274 4.87128C16.3237 4.06549 15.3686 3.42646 14.3171 2.99091C13.2656 2.55535 12.1384 2.33186 11.0003 2.33326H10.9991Z" fill="#D9D9D9"/>
</svg>
