<svg width="48" height="48" viewBox="0 0 48 48" fill="none" xmlns="http://www.w3.org/2000/svg">
<path d="M9 27H39M9 27L13.686 44H34.313L39 27M9 27C9 21.5 14.5 19 14.5 19C14.5 17 16.5 11 24 11C31.5 11 33.5 17 33.5 19C33.5 19 39 21.5 39 27" stroke="#333333" stroke-linecap="round" stroke-linejoin="round"/>
<path d="M6 27H42" stroke="#333333" stroke-linecap="round"/>
<path d="M28 12C28 10.9391 27.5786 9.92172 26.8284 9.17157C26.0783 8.42143 25.0609 8 24 8C22.9391 8 21.9217 8.42143 21.1716 9.17157C20.4214 9.92172 20 10.9391 20 12" stroke="#333333"/>
<path d="M24 8L28 4" stroke="#333333" stroke-linecap="round"/>
<path d="M20 27V44M28 27V44" stroke="#333333"/>
</svg>
