<svg width="28" height="28" viewBox="0 0 28 28" fill="none" xmlns="http://www.w3.org/2000/svg">
<path fill-rule="evenodd" clip-rule="evenodd" d="M13.9997 1.83326C12.4017 1.83137 10.819 2.14522 9.34262 2.75677C7.86625 3.36833 6.52524 4.26554 5.39663 5.39687C4.2653 6.52548 3.36808 7.86649 2.75653 9.34287C2.14497 10.8192 1.83113 12.4019 1.83302 13.9999C1.83113 15.5979 2.14497 17.1806 2.75653 18.657C3.368 20.1332 4.26506 21.474 5.39619 22.6025C6.52489 23.7341 7.86605 24.6314 9.34262 25.2431C10.819 25.8546 12.4017 26.1685 13.9997 26.1666H13.9991L13.9997 25.6666L14.0003 26.1666H13.9997C15.5977 26.1685 17.1804 25.8546 18.6567 25.2431C20.1331 24.6315 21.4741 23.7343 22.6027 22.603C23.7341 21.4744 24.6313 20.1334 25.2428 18.657C25.8544 17.1806 26.1682 15.598 26.1663 13.9999V14.0005L25.6663 13.9999L26.1663 13.9993V13.9999C26.1682 12.4019 25.8544 10.8192 25.2428 9.34287C24.6313 7.86649 23.7341 6.52548 22.6027 5.39687C21.4741 4.26554 20.1331 3.36833 18.6567 2.75677C17.1804 2.14522 15.5977 1.83137 13.9997 1.83326ZM13.9997 1.83326L13.9991 1.83326L13.9997 2.33326L14.0003 1.83326L13.9997 1.83326ZM1.83302 13.9999L1.83302 14.0005L2.33302 13.9999L1.83302 13.9993L1.83302 13.9999ZM9.72532 3.68065C11.0802 3.11943 12.5326 2.83145 13.9991 2.83326H14.0003C15.4668 2.83145 16.9192 3.11943 18.274 3.68065C19.6289 4.24187 20.8595 5.06527 21.8952 6.10354L21.8961 6.10442C22.9343 7.14009 23.7577 8.3707 24.319 9.72556C24.8802 11.0804 25.1682 12.5328 25.1663 13.9993V14.0005C25.1682 15.467 24.8802 16.9194 24.319 18.2743C23.7577 19.6292 22.9343 20.8598 21.8961 21.8954L21.8952 21.8963C20.8595 22.9346 19.6289 23.758 18.274 24.3192C16.9192 24.8804 15.4668 25.1684 14.0003 25.1666H13.9991C12.5326 25.1684 11.0802 24.8804 9.72532 24.3192C8.37046 23.758 7.13985 22.9346 6.10418 21.8963L6.10329 21.8954C5.06502 20.8598 4.24162 19.6292 3.6804 18.2743C3.11919 16.9194 2.83121 15.467 2.83302 14.0005V13.9993C2.83121 12.5328 3.11919 11.0804 3.6804 9.72556C4.24162 8.3707 5.06502 7.14009 6.10329 6.10442L6.10418 6.10354C7.13985 5.06527 8.37046 4.24187 9.72532 3.68065ZM20.1866 10.8535C20.3818 10.6582 20.3818 10.3416 20.1866 10.1464C19.9913 9.9511 19.6747 9.9511 19.4795 10.1464L12.833 16.7928L9.68656 13.6464C9.4913 13.4511 9.17472 13.4511 8.97945 13.6464C8.78419 13.8416 8.78419 14.1582 8.97945 14.3535L12.4795 17.8535C12.6747 18.0487 12.9913 18.0487 13.1866 17.8535L20.1866 10.8535Z" fill="#03A63C"/>
</svg>
