<svg width="22" height="22" viewBox="0 0 22 22" fill="none" xmlns="http://www.w3.org/2000/svg">
<path fill-rule="evenodd" clip-rule="evenodd" d="M10.9997 1.33326C9.73002 1.33177 8.47257 1.58114 7.29956 2.06703C6.12655 2.55292 5.06109 3.26577 4.16438 4.16462C3.26553 5.06134 2.55268 6.12679 2.06679 7.2998C1.58089 8.47282 1.33153 9.73027 1.33301 10.9999L1.33302 10.9993L1.83301 10.9999L1.33302 11.0005L1.33301 10.9999C1.33153 12.2696 1.58089 13.527 2.06679 14.7C2.5527 15.8731 3.26558 16.9386 4.16448 17.8353C5.06117 18.7341 6.12659 19.4469 7.29956 19.9328C8.47257 20.4187 9.73002 20.6681 10.9997 20.6666H10.9991L10.9997 20.1666L11.0003 20.6666H10.9997C12.2693 20.6681 13.5268 20.4187 14.6998 19.9328C15.8728 19.4469 16.9383 18.7341 17.835 17.8352C18.7338 16.9385 19.4467 15.8731 19.9326 14.7C20.4185 13.527 20.6678 12.2696 20.6663 10.9999V11.0005L20.1663 10.9999L20.6663 10.9993V10.9999C20.6678 9.73026 20.4185 8.47281 19.9326 7.2998C19.4467 6.12679 18.7338 5.06134 17.835 4.16462C16.9383 3.26577 15.8728 2.55292 14.6998 2.06703C13.5268 1.58114 12.2693 1.33177 10.9997 1.33326ZM10.9997 1.33326L10.9991 1.33326L10.9997 1.83326L11.0003 1.33326L10.9997 1.33326ZM7.68225 2.99091C8.73374 2.55535 9.86094 2.33186 10.9991 2.33326H11.0003C12.1384 2.33186 13.2656 2.55535 14.3171 2.99091C15.3686 3.42646 16.3237 4.06549 17.1274 4.87128L17.1283 4.87217C17.9341 5.67594 18.5731 6.63101 19.0087 7.6825C19.4443 8.73399 19.6678 9.86118 19.6663 10.9993V11.0005C19.6678 12.1387 19.4443 13.2659 19.0087 14.3174C18.5731 15.3688 17.9341 16.3239 17.1283 17.1277L17.1274 17.1286C16.3237 17.9344 15.3686 18.5734 14.3171 19.0089C13.2656 19.4445 12.1384 19.668 11.0003 19.6666H10.9991C9.86094 19.668 8.73374 19.4445 7.68225 19.0089C6.63076 18.5734 5.6757 17.9344 4.87193 17.1286L4.87104 17.1277C4.06525 16.3239 3.42622 15.3688 2.99066 14.3174C2.55511 13.2659 2.33161 12.1387 2.33301 11.0005V10.9993C2.33161 9.86118 2.55511 8.73399 2.99066 7.6825C3.42622 6.63101 4.06525 5.67594 4.87104 4.87217L4.87193 4.87128C5.6757 4.06549 6.63076 3.42646 7.68225 2.99091ZM15.9366 8.60347C16.1318 8.40821 16.1318 8.09163 15.9366 7.89637C15.7413 7.7011 15.4247 7.7011 15.2295 7.89637L10.083 13.0428L7.68656 10.6464C7.4913 10.4511 7.17472 10.4511 6.97945 10.6464C6.78419 10.8416 6.78419 11.1582 6.97945 11.3535L9.72945 14.1035C9.92472 14.2987 10.2413 14.2987 10.4366 14.1035L15.9366 8.60347Z" fill="#D9D9D9"/>
</svg>
