<svg width="28" height="28" viewBox="0 0 28 28" fill="none" xmlns="http://www.w3.org/2000/svg">
<path fill-rule="evenodd" clip-rule="evenodd" d="M13.9997 1.83398C7.28003 1.83398 1.83301 7.28101 1.83301 14.0007C1.83301 20.7203 7.28003 26.1673 13.9997 26.1673C20.7193 26.1673 26.1663 20.7203 26.1663 14.0007C26.1663 7.28101 20.7193 1.83398 13.9997 1.83398ZM2.83301 14.0007C2.83301 7.83329 7.83232 2.83398 13.9997 2.83398C20.167 2.83398 25.1663 7.83329 25.1663 14.0007C25.1663 20.168 20.167 25.1673 13.9997 25.1673C7.83232 25.1673 2.83301 20.168 2.83301 14.0007ZM14.4997 9.33398C14.4997 9.05784 14.2758 8.83398 13.9997 8.83398C13.7235 8.83398 13.4997 9.05784 13.4997 9.33398V13.5007H9.33301C9.05687 13.5007 8.83301 13.7245 8.83301 14.0007C8.83301 14.2768 9.05687 14.5007 9.33301 14.5007H13.4997V18.6673C13.4997 18.9435 13.7235 19.1673 13.9997 19.1673C14.2758 19.1673 14.4997 18.9435 14.4997 18.6673V14.5007H18.6663C18.9425 14.5007 19.1663 14.2768 19.1663 14.0007C19.1663 13.7245 18.9425 13.5007 18.6663 13.5007H14.4997V9.33398Z" fill="#333333"/>
</svg>
