<svg width="48" height="48" viewBox="0 0 48 48" fill="none" xmlns="http://www.w3.org/2000/svg">
<path d="M14 42H34M24 42C28.7739 42 33.3523 40.1036 36.7279 36.7279C40.1036 33.3523 42 28.7739 42 24H6C6 28.7739 7.89642 33.3523 11.2721 36.7279C14.6477 40.1036 19.2261 42 24 42Z" stroke="#333333" stroke-linecap="round" stroke-linejoin="round"/>
<path d="M22.7598 24.0009C21.5485 24.0122 20.3778 23.5651 19.4823 22.7493C18.5869 21.9335 18.0331 20.8093 17.9318 19.6022C17.8306 18.3951 18.1895 17.1944 18.9366 16.2409C19.6836 15.2873 20.7635 14.6515 21.9598 14.4609C21.7683 13.6134 21.8104 12.7297 22.0817 11.9043C22.353 11.0788 22.8433 10.3424 23.5002 9.77373C24.1572 9.20505 24.9562 8.82535 25.812 8.67516C26.6679 8.52497 27.5484 8.60991 28.3598 8.92091C28.7151 8.36164 29.1823 7.88197 29.732 7.51211C30.2817 7.14225 30.9021 6.89021 31.554 6.77185C32.2059 6.65349 32.8753 6.67138 33.5199 6.82439C34.1646 6.9774 34.7706 7.26222 35.2998 7.66091C36.2229 6.93536 37.38 6.57333 38.552 6.6433C39.7241 6.71328 40.8298 7.21042 41.66 8.04066C42.4903 8.8709 42.9874 9.97665 43.0574 11.1487C43.1274 12.3207 42.7653 13.4778 42.0398 14.4009C42.4914 15.0008 42.796 15.6982 42.929 16.4372C43.0621 17.1761 43.02 17.936 42.806 18.6557C42.592 19.3754 42.2122 20.0349 41.697 20.5812C41.1819 21.1274 40.5457 21.5452 39.8398 21.8009C40.0229 22.5207 40.0434 23.2722 39.8998 24.0009M25.9998 24.0009L33.9998 16.0009" stroke="#333333" stroke-linecap="round" stroke-linejoin="round"/>
<path d="M21.8001 14.5009C20.7031 13.3314 19.2792 12.5196 17.7141 12.1712C16.1489 11.8227 14.5151 11.9539 13.0256 12.5475C11.536 13.1412 10.2599 14.1698 9.3635 15.4993C8.46708 16.8288 7.99198 18.3975 8.0001 20.0009C8.0001 21.4609 8.4001 22.8209 9.0801 24.0009" stroke="#333333" stroke-linecap="round" stroke-linejoin="round"/>
</svg>
