<svg width="20" height="20" viewBox="0 0 20 20" fill="none" xmlns="http://www.w3.org/2000/svg">
<path d="M18.1716 8.36727H17.5003V8.33268H10.0003V11.666H14.7099C14.0228 13.6064 12.1766 14.9993 10.0003 14.9993C7.23908 14.9993 5.00033 12.7606 5.00033 9.99935C5.00033 7.2381 7.23908 4.99935 10.0003 4.99935C11.2749 4.99935 12.4345 5.48018 13.3174 6.2656L15.6745 3.90852C14.1862 2.52143 12.1953 1.66602 10.0003 1.66602C5.39824 1.66602 1.66699 5.39727 1.66699 9.99935C1.66699 14.6014 5.39824 18.3327 10.0003 18.3327C14.6024 18.3327 18.3337 14.6014 18.3337 9.99935C18.3337 9.4406 18.2762 8.89518 18.1716 8.36727Z" fill="#FFC107"/>
<path d="M2.62793 6.1206L5.36585 8.12852C6.10668 6.29435 7.90085 4.99935 10.0004 4.99935C11.275 4.99935 12.4346 5.48018 13.3175 6.2656L15.6746 3.90852C14.1863 2.52143 12.1954 1.66602 10.0004 1.66602C6.7996 1.66602 4.02376 3.4731 2.62793 6.1206Z" fill="#FF3D00"/>
<path d="M9.9998 18.3336C12.1523 18.3336 14.1081 17.5099 15.5869 16.1703L13.0077 13.9878C12.1431 14.6457 11.0863 15.0015 9.9998 15.0003C7.8323 15.0003 5.99189 13.6182 5.29855 11.6895L2.58105 13.7832C3.96022 16.482 6.76105 18.3336 9.9998 18.3336Z" fill="#4CAF50"/>
<path d="M18.1713 8.36857H17.5V8.33398H10V11.6673H14.7096C14.3809 12.5908 13.7889 13.3978 13.0067 13.9886L13.0079 13.9877L15.5871 16.1702C15.4046 16.3361 18.3333 14.1673 18.3333 10.0007C18.3333 9.4419 18.2758 8.89648 18.1713 8.36857Z" fill="#1976D2"/>
</svg>
