<svg width="40" height="40" viewBox="0 0 40 40" fill="none" xmlns="http://www.w3.org/2000/svg">
<path fill-rule="evenodd" clip-rule="evenodd" d="M20.0002 2.834C17.7454 2.8313 15.5124 3.27411 13.4292 4.13699C11.3461 4.99987 9.45402 6.26582 7.86162 7.86211C6.26533 9.45451 4.99938 11.3466 4.1365 13.4297C3.27362 15.5128 2.83081 17.7459 2.83351 20.0007C2.83081 22.2554 3.27362 24.4885 4.1365 26.5716C4.99938 28.6547 6.26533 30.5468 7.86162 32.1392C9.45403 33.7355 11.3461 35.0015 13.4292 35.8643C15.5124 36.7272 17.7454 37.17 20.0002 37.1673H19.9996L20.0002 36.6673L20.0008 37.1673H20.0002C22.2549 37.17 24.488 36.7272 26.5711 35.8643C28.6542 35.0015 30.5463 33.7355 32.1387 32.1392C33.735 30.5468 35.001 28.6547 35.8638 26.5716C36.7267 24.4885 37.1695 22.2554 37.1668 20.0007V20.0013L36.6668 20.0007L37.1668 20V20.0007C37.1695 17.7459 36.7267 15.5128 35.8638 13.4297C35.0009 11.3465 33.7349 9.45428 32.1384 7.86182C30.5461 6.26566 28.6541 4.99982 26.5711 4.13699C24.488 3.27411 22.2549 2.8313 20.0002 2.834ZM20.0002 2.834L19.9996 2.834L20.0002 3.334L20.0008 2.834L20.0002 2.834ZM2.83351 20.0007L2.83351 20.0013L3.33351 20.0007L2.83351 20L2.83351 20.0007ZM13.8119 5.06086C15.7735 4.24832 17.8763 3.83138 19.9996 3.834H20.0008C22.124 3.83138 24.2268 4.24832 26.1884 5.06086C28.15 5.87341 29.9317 7.06554 31.4312 8.56877L31.4321 8.56966C32.9353 10.0691 34.1274 11.8508 34.94 13.8124C35.7525 15.774 36.1695 17.8768 36.1668 20V20.0013C36.1695 22.1245 35.7525 24.2273 34.94 26.1889C34.1274 28.1505 32.9353 29.9322 31.4321 31.4317L31.4312 31.4326C29.9317 32.9358 28.15 34.1279 26.1884 34.9405C24.2268 35.753 22.124 36.1699 20.0008 36.1673H19.9996C17.8763 36.1699 15.7735 35.753 13.8119 34.9405C11.8503 34.1279 10.0686 32.9358 8.56917 31.4326L8.56828 31.4317C7.06505 29.9322 5.87292 28.1505 5.06038 26.1889C4.24783 24.2273 3.83089 22.1245 3.83351 20.0013V20C3.83089 17.8768 4.24783 15.774 5.06038 13.8124C5.87292 11.8508 7.06505 10.0691 8.56828 8.56966L8.56917 8.56877C10.0686 7.06554 11.8503 5.87341 13.8119 5.06086ZM28.687 15.3542C28.8823 15.1589 28.8823 14.8424 28.687 14.6471C28.4918 14.4518 28.1752 14.4518 27.9799 14.6471L18.3335 24.2935L13.687 19.6471C13.4918 19.4518 13.1752 19.4518 12.9799 19.6471C12.7847 19.8424 12.7847 20.1589 12.9799 20.3542L17.9799 25.3542C18.1752 25.5495 18.4918 25.5495 18.687 25.3542L28.687 15.3542Z"/>
</svg>
