<svg width="15" height="15" viewBox="0 0 15 15" fill="none" xmlns="http://www.w3.org/2000/svg">
<g clip-path="url(#clip0_637_587)">
<path fill-rule="evenodd" clip-rule="evenodd" d="M4.91631 1.26242C5.7354 0.923129 6.61343 0.748993 7.5 0.750004C8.38658 0.748993 9.26461 0.923129 10.0837 1.26242C10.9028 1.6017 11.6468 2.09945 12.2729 2.72708C12.9006 3.35324 13.3983 4.09723 13.7376 4.91631C14.0769 5.7354 14.251 6.61343 14.25 7.5C14.251 8.38657 14.0769 9.26461 13.7376 10.0837C13.3983 10.9028 12.9006 11.6468 12.2729 12.2729C11.6468 12.9006 10.9028 13.3983 10.0837 13.7376C9.26461 14.0769 8.38657 14.251 7.5 14.25C6.61343 14.251 5.7354 14.0769 4.91631 13.7376C4.0972 13.3983 3.35318 12.9005 2.727 12.2729C2.09941 11.6467 1.60169 10.9027 1.26242 10.0837C0.923129 9.26461 0.748993 8.38658 0.750004 7.5C0.748993 6.61343 0.923129 5.7354 1.26242 4.91631C1.6017 4.09723 2.09945 3.35324 2.72708 2.72708C3.35324 2.09945 4.09723 1.6017 4.91631 1.26242ZM0.750004 7.5L0.750005 7.50062L1.25 7.5L0.750005 7.49939L0.750004 7.5ZM7.5 14.25L7.50062 14.25L7.5 13.75L7.49939 14.25L7.5 14.25ZM14.25 7.5L14.25 7.49939L13.75 7.5L14.25 7.50062L14.25 7.5ZM7.5 0.750004L7.50062 0.750005L7.5 1.25L7.49939 0.750005L7.5 0.750004ZM7.49939 1.75C6.74435 1.74907 5.99657 1.89734 5.29901 2.18629C4.60144 2.47524 3.96785 2.89917 3.43463 3.43374L3.43374 3.43463C2.89917 3.96785 2.47524 4.60144 2.18629 5.29901C1.89734 5.99657 1.74907 6.74435 1.75 7.49939V7.50062C1.74907 8.25566 1.89734 9.00344 2.18629 9.701C2.47524 10.3986 2.89917 11.0322 3.43374 11.5654L3.43463 11.5663C3.96785 12.1008 4.60144 12.5248 5.29901 12.8137C5.99657 13.1027 6.74435 13.2509 7.49939 13.25H7.50062C8.25566 13.2509 9.00344 13.1027 9.701 12.8137C10.3986 12.5248 11.0322 12.1008 11.5654 11.5663L11.5663 11.5654C12.1008 11.0322 12.5248 10.3986 12.8137 9.701C13.1027 9.00344 13.2509 8.25566 13.25 7.50062V7.49939C13.2509 6.74435 13.1027 5.99657 12.8137 5.29901C12.5248 4.60144 12.1008 3.96785 11.5663 3.43463L11.5654 3.43374C11.0322 2.89917 10.3986 2.47524 9.701 2.18629C9.00344 1.89734 8.25566 1.74907 7.50062 1.75H7.49939ZM7.5 11.5625C7.7072 11.5625 7.90591 11.4802 8.05243 11.3337C8.19894 11.1872 8.28125 10.9885 8.28125 10.7812C8.28125 10.574 8.19894 10.3753 8.05243 10.2288C7.90591 10.0823 7.7072 10 7.5 10C7.2928 10 7.09409 10.0823 6.94757 10.2288C6.80106 10.3753 6.71875 10.574 6.71875 10.7812C6.71875 10.9885 6.80106 11.1872 6.94757 11.3337C7.09409 11.4802 7.2928 11.5625 7.5 11.5625ZM8 3.75C8 3.47386 7.77614 3.25 7.5 3.25C7.22386 3.25 7 3.47386 7 3.75V8.75C7 9.02614 7.22386 9.25 7.5 9.25C7.77614 9.25 8 9.02614 8 8.75V3.75Z" fill="#8D8D8D"/>
</g>
<defs>
<clipPath id="clip0_637_587">
<rect width="15" height="15" fill="white"/>
</clipPath>
</defs>
</svg>
