<svg width="23" height="22" viewBox="0 0 23 22" fill="none" xmlns="http://www.w3.org/2000/svg">
<path d="M11.5001 2.75C16.8167 2.75 21.126 6.10867 21.126 10.2529C21.126 14.3963 16.8167 17.7549 11.501 17.7549C10.9717 17.754 10.443 17.7203 9.91789 17.6541L5.87723 20.2968C5.41798 20.5398 5.25573 20.5132 5.44456 19.9183L6.26223 16.5468C3.62223 15.2084 1.87598 12.8893 1.87598 10.2529C1.87598 6.10958 6.18431 2.75 11.501 2.75M16.9166 10.1383L18.2641 8.833C18.3419 8.75225 18.3853 8.64447 18.3851 8.53237C18.385 8.42028 18.3414 8.3126 18.2634 8.23204C18.1855 8.15148 18.0793 8.10431 17.9673 8.10048C17.8552 8.09665 17.7461 8.13645 17.6628 8.2115L15.8955 9.922V8.5085C15.8955 8.39375 15.8499 8.2837 15.7688 8.20256C15.6876 8.12142 15.5776 8.07583 15.4628 8.07583C15.3481 8.07583 15.238 8.12142 15.1569 8.20256C15.0757 8.2837 15.0301 8.39375 15.0301 8.5085V10.8524C15.0149 10.9194 15.0149 10.9889 15.0301 11.0559V12.375C15.0301 12.4898 15.0757 12.5998 15.1569 12.6809C15.238 12.7621 15.3481 12.8077 15.4628 12.8077C15.5776 12.8077 15.6876 12.7621 15.7688 12.6809C15.8499 12.5998 15.8955 12.4898 15.8955 12.375V11.1256L16.2869 10.747L17.5959 12.6106C17.6286 12.6571 17.6701 12.6967 17.7181 12.7272C17.7661 12.7577 17.8196 12.7784 17.8756 12.7882C17.9317 12.798 17.989 12.7967 18.0445 12.7843C18.1 12.7719 18.1525 12.7487 18.1991 12.716C18.2456 12.6833 18.2852 12.6418 18.3157 12.5938C18.3462 12.5458 18.3669 12.4923 18.3767 12.4362C18.3865 12.3802 18.3851 12.3229 18.3727 12.2674C18.3604 12.2119 18.3372 12.1594 18.3045 12.1128L16.9166 10.1383ZM14.2051 11.902H12.8668V8.52225C12.8617 8.41106 12.8139 8.30613 12.7334 8.22926C12.6529 8.15239 12.5459 8.10949 12.4346 8.10949C12.3233 8.10949 12.2163 8.15239 12.1358 8.22926C12.0553 8.30613 12.0075 8.41106 12.0024 8.52225V12.3347C12.0024 12.573 12.1949 12.7673 12.4341 12.7673H14.2051C14.3199 12.7673 14.4299 12.7217 14.5111 12.6406C14.5922 12.5595 14.6378 12.4494 14.6378 12.3347C14.6378 12.2199 14.5922 12.1099 14.5111 12.0287C14.4299 11.9476 14.3199 11.902 14.2051 11.902ZM8.83623 10.9019L9.47423 9.33625L10.0591 10.901L8.83623 10.9019ZM11.149 11.3483L11.1508 11.3337C11.1505 11.2247 11.1089 11.1199 11.0344 11.0403L10.0756 8.47367C10.0354 8.35135 9.9588 8.24422 9.8561 8.16658C9.7534 8.08894 9.62945 8.04449 9.50081 8.03917C9.37135 8.03911 9.24489 8.07821 9.13806 8.15134C9.03123 8.22447 8.94902 8.32821 8.90223 8.44892L7.37873 12.1843C7.33533 12.2906 7.33592 12.4097 7.38035 12.5155C7.42479 12.6213 7.50944 12.7051 7.61568 12.7485C7.72193 12.7919 7.84106 12.7914 7.94686 12.7469C8.05267 12.7025 8.1365 12.6178 8.17989 12.5116L8.48423 11.7663H10.3817L10.6549 12.4997C10.6735 12.5545 10.703 12.605 10.7415 12.6482C10.78 12.6915 10.8268 12.7265 10.8791 12.7513C10.9314 12.7761 10.9882 12.7902 11.046 12.7927C11.1039 12.7952 11.1616 12.786 11.2159 12.7658C11.2701 12.7455 11.3197 12.7146 11.3618 12.6748C11.4039 12.635 11.4375 12.5872 11.4608 12.5342C11.484 12.4812 11.4964 12.424 11.4972 12.3661C11.4979 12.3082 11.4871 12.2508 11.4652 12.1972L11.149 11.3483ZM8.10289 8.52683C8.10314 8.47002 8.09214 8.41373 8.07054 8.36119C8.04894 8.30864 8.01716 8.26089 7.97703 8.22068C7.9369 8.18046 7.88922 8.14858 7.83672 8.12687C7.78423 8.10516 7.72795 8.09405 7.67114 8.09417H4.69656C4.58181 8.09417 4.47176 8.13975 4.39062 8.22089C4.30948 8.30203 4.26389 8.41208 4.26389 8.52683C4.26389 8.64158 4.30948 8.75163 4.39062 8.83278C4.47176 8.91392 4.58181 8.9595 4.69656 8.9595H5.75989V12.3842C5.75989 12.4989 5.80548 12.609 5.88662 12.6901C5.96776 12.7712 6.07781 12.8168 6.19256 12.8168C6.30731 12.8168 6.41736 12.7712 6.4985 12.6901C6.57964 12.609 6.62523 12.4989 6.62523 12.3842V8.9595H7.67023C7.72711 8.95974 7.78348 8.94872 7.83609 8.92706C7.88869 8.9054 7.93648 8.87354 7.97671 8.83332C8.01693 8.79309 8.04879 8.7453 8.07045 8.69269C8.09211 8.64009 8.10314 8.58372 8.10289 8.52683Z" fill="#333333"/>
</svg>
